HIERARCHY
ROOT Hips
{
	OFFSET 0.00000 0.00000 0.00000
	CHANNELS 6 Xposition Yposition Zposition Zrotation Yrotation Xrotation 
	JOINT LHipJoint
	{
		OFFSET 0 0 0
		CHANNELS 3 Zrotation Yrotation Xrotation
		JOINT LeftUpLeg
		{
			OFFSET 1.53139 -1.83434 0.76626
			CHANNELS 3 Zrotation Yrotation Xrotation
			JOINT LeftLeg
			{
				OFFSET 2.56112 -7.03663 0.00000
				CHANNELS 3 Zrotation Yrotation Xrotation
				JOINT LeftFoot
				{
					OFFSET 2.59983 -7.14299 0.00000
					CHANNELS 3 Zrotation Yrotation Xrotation
					JOINT LeftToeBase
					{
						OFFSET 0.13742 -0.37757 2.00054
						CHANNELS 3 Zrotation Yrotation Xrotation
						End Site
						{
							OFFSET 0.00000 -0.00000 1.02897
						}
					}
				}
			}
		}
	}
	JOINT RHipJoint
	{
		OFFSET 0 0 0
		CHANNELS 3 Zrotation Yrotation Xrotation
		JOINT RightUpLeg
		{
			OFFSET -1.40122 -1.83435 0.76627
			CHANNELS 3 Zrotation Yrotation Xrotation
			JOINT RightLeg
			{
				OFFSET -2.54052 -6.98003 0.00000
				CHANNELS 3 Zrotation Yrotation Xrotation
				JOINT RightFoot
				{
					OFFSET -2.63179 -7.23079 0.00000
					CHANNELS 3 Zrotation Yrotation Xrotation
					JOINT RightToeBase
					{
						OFFSET -0.24131 -0.66299 2.03908
						CHANNELS 3 Zrotation Yrotation Xrotation
						End Site
						{
							OFFSET -0.00000 -0.00000 1.07391
						}
					}
				}
			}
		}
	}
	JOINT LowerBack
	{
		OFFSET 0 0 0
		CHANNELS 3 Zrotation Yrotation Xrotation
		JOINT Spine
		{
			OFFSET 0.01174 2.10302 -0.29778
			CHANNELS 3 Zrotation Yrotation Xrotation
			JOINT Spine1
			{
				OFFSET 0.00772 2.13227 -0.01247
				CHANNELS 3 Zrotation Yrotation Xrotation
				JOINT Neck
				{
					OFFSET 0 0 0
					CHANNELS 3 Zrotation Yrotation Xrotation
					JOINT Neck1
					{
						OFFSET -0.09219 1.60848 0.31481
						CHANNELS 3 Zrotation Yrotation Xrotation
						JOINT Head
						{
							OFFSET 0.13974 1.65456 -0.31134
							CHANNELS 3 Zrotation Yrotation Xrotation
							End Site
							{
								OFFSET 0.04742 1.69515 -0.14578
							}
						}
					}
				}
				JOINT LeftShoulder
				{
					OFFSET 0 0 0
					CHANNELS 3 Zrotation Yrotation Xrotation
					JOINT LeftArm
					{
						OFFSET 3.24909 1.02882 -0.23993
						CHANNELS 3 Zrotation Yrotation Xrotation
						JOINT LeftForeArm
						{
							OFFSET 5.32955 -0.00000 -0.00000
							CHANNELS 3 Zrotation Yrotation Xrotation
							JOINT LeftHand
							{
								OFFSET 3.69232 -0.00000 -0.00000
								CHANNELS 3 Zrotation Yrotation Xrotation
								JOINT LeftFingerBase
								{
									OFFSET 0 0 0
									CHANNELS 3 Zrotation Yrotation Xrotation
									JOINT LeftHandIndex1
									{
										OFFSET 0.53660 -0.00000 -0.00000
										CHANNELS 3 Zrotation Yrotation Xrotation
										End Site
										{
											OFFSET 0.43262 -0.00000 -0.00000
										}
									}
								}
								JOINT LThumb
								{
									OFFSET 0 0 0
									CHANNELS 3 Zrotation Yrotation Xrotation
									End Site
									{
										OFFSET 0.43922 -0.00000 0.43922
									}
								}
							}
						}
					}
				}
				JOINT RightShoulder
				{
					OFFSET 0 0 0
					CHANNELS 3 Zrotation Yrotation Xrotation
					JOINT RightArm
					{
						OFFSET -3.21387 0.93002 -0.34594
						CHANNELS 3 Zrotation Yrotation Xrotation
						JOINT RightForeArm
						{
							OFFSET -5.23431 -0.00000 0.00000
							CHANNELS 3 Zrotation Yrotation Xrotation
							JOINT RightHand
							{
								OFFSET -3.55301 -0.00000 -0.00000
								CHANNELS 3 Zrotation Yrotation Xrotation
								JOINT RightFingerBase
								{
									OFFSET 0 0 0
									CHANNELS 3 Zrotation Yrotation Xrotation
									JOINT RightHandIndex1
									{
										OFFSET -0.77252 -0.00000 -0.00000
										CHANNELS 3 Zrotation Yrotation Xrotation
										End Site
										{
											OFFSET -0.62283 -0.00000 -0.00000
										}
									}
								}
								JOINT RThumb
								{
									OFFSET 0 0 0
									CHANNELS 3 Zrotation Yrotation Xrotation
									End Site
									{
										OFFSET -0.63234 -0.00000 0.63234
									}
								}
							}
						}
					}
				}
			}
		}
	}
}
MOTION
Frames: 15
Frame Time: .0083333
8.2371 17.7975 4.0935 184.2580 3.7557 -183.6650 0.0000 0.0000 0.0000 -13.8077 -10.5921 -20.8348 2.6875 10.1710 29.5324 -0.3962 -11.1541 5.5431 0.2696 -3.3400 -9.2269 0.0000 0.0000 0.0000 22.8516 -10.5360 13.0710 -1.4583 -7.6324 21.6031 -0.3736 -1.0820 -11.9887 -0.9892 6.3304 -17.7461 3.8923 1.6381 12.7383 0.7558 2.9266 0.7800 -1.9224 1.3962 -6.1718 -12.7630 -3.4364 -17.6202 7.6998 -6.6413 34.4884 4.0323 -4.4149 15.8613 0.0000 0.0000 0.0000 -85.7761 3.4630 14.3024 13.8400 -22.5056 -2.7666 -0.0000 -0.0000 7.4239 19.5902 25.5569 8.7287 -7.1250 0.0000 -0.0000 -11.1219 56.5440 -3.1750 0.0000 0.0000 0.0000 86.4902 2.0592 15.9087 -20.7966 31.5901 -5.9430 0.0000 0.0000 4.0761 -15.4027 7.4838 -2.0550 7.1250 -0.0000 -0.0000 8.3107 -22.2469 4.5929
8.2395 17.7729 4.2462 184.2630 4.1347 -183.8080 0.0000 0.0000 0.0000 -13.5118 -10.9525 -21.1494 2.7278 10.2407 29.7599 -0.3658 -10.7933 5.8638 0.2676 -3.3280 -9.1932 0.0000 0.0000 0.0000 22.9670 -10.3844 13.1703 -1.3849 -7.4460 21.0437 -0.4390 -1.0739 -12.9513 -0.9651 6.2548 -17.5254 3.8315 1.7437 13.1113 0.8063 3.0872 0.8373 -1.8783 1.4780 -6.3161 -12.8249 -3.4263 -17.4912 7.7684 -6.6404 34.3998 4.0729 -4.4130 15.7924 -0.0000 -0.0000 0.0000 -85.9611 3.5319 13.7776 13.7653 -22.3982 -2.7380 -0.0000 -0.0000 7.5946 19.7177 25.6353 8.8140 -7.1250 0.0000 -0.0000 -11.0263 56.6497 -3.1755 -0.0000 -0.0000 0.0000 86.2076 2.3745 16.5046 -21.1209 31.9692 -6.1138 0.0000 0.0000 3.9551 -15.3445 6.5528 -1.7936 7.1250 -0.0000 -0.0000 8.3890 -23.2032 4.4515
8.2367 17.7493 4.3942 183.9610 4.3238 -184.0810 0.0000 0.0000 0.0000 -13.6591 -11.3976 -21.1820 2.7431 10.2671 29.8460 -0.3739 -10.8715 5.6395 0.4202 -4.1607 -11.5293 0.0000 0.0000 0.0000 22.6511 -10.5260 13.1786 -1.3371 -7.3218 20.6723 -0.4944 -1.1265 -13.7372 -1.0152 6.4106 -17.9804 3.5366 1.7844 13.5132 0.7268 3.1165 0.9467 -1.8174 1.5016 -6.4330 -12.8020 -3.4188 -17.3908 7.8355 -6.6918 34.3718 4.0879 -4.4284 15.7637 -0.0000 -0.0000 0.0000 -86.1474 3.6033 13.1265 13.7194 -22.3322 -2.7206 -0.0000 -0.0000 7.8723 19.7635 25.6459 8.8392 -7.1250 0.0000 -0.0000 -10.9833 56.6700 -3.1683 -0.0000 -0.0000 0.0000 86.0256 2.6714 16.9379 -21.3865 32.2767 -6.2550 0.0000 0.0000 4.0655 -15.1248 6.0081 -1.6205 7.1250 -0.0000 -0.0000 8.5747 -23.7681 4.4395
8.2313 17.7286 4.5352 183.6270 4.5547 -184.3190 0.0000 0.0000 0.0000 -13.8430 -11.8360 -21.1242 2.7412 10.2638 29.8352 -0.3781 -10.9073 5.4749 0.5656 -4.8168 -13.3869 0.0000 0.0000 0.0000 22.2733 -10.5886 13.1463 -1.3030 -7.2314 20.4029 -0.5601 -1.0693 -14.5639 -0.9825 6.3094 -17.6847 3.2091 1.8146 13.7878 0.6377 3.1191 1.0956 -1.7369 1.5168 -6.4392 -12.6249 -3.3735 -17.2976 7.7852 -6.6436 34.2164 4.0417 -4.3822 15.6474 -0.0000 -0.0000 0.0000 -86.3279 3.7012 12.6547 13.7874 -22.4300 -2.7465 -0.0000 -0.0000 7.8272 19.5562 25.8971 8.8189 -7.1250 0.0000 -0.0000 -11.3260 56.8787 -3.3263 -0.0000 -0.0000 0.0000 85.8854 3.0754 17.2440 -21.5089 32.4175 -6.3205 0.0000 0.0000 4.1658 -15.0369 6.3216 -1.6943 7.1250 -0.0000 -0.0000 8.6249 -23.4500 4.5300
8.2295 17.7145 4.6706 183.4520 4.9750 -184.5340 0.0000 0.0000 0.0000 -13.7823 -12.1741 -21.0336 2.7339 10.2512 29.7941 -0.3665 -10.7498 5.4645 0.6387 -5.1129 -14.2308 0.0000 0.0000 0.0000 22.1550 -10.3213 13.1675 -1.2775 -7.1632 20.1996 -0.6415 -0.9583 -15.5069 -0.6894 5.3080 -14.7891 2.9457 1.8930 13.9987 0.6483 3.2019 1.2708 -1.5987 1.5739 -6.3807 -12.5842 -3.3347 -17.3059 7.7651 -6.5534 34.1025 4.0415 -4.3299 15.5779 0.0000 0.0000 0.0000 -86.5501 3.8100 12.3866 13.8777 -22.5596 -2.7810 -0.0000 -0.0000 7.5216 19.4156 25.9065 8.7543 -7.1250 0.0000 -0.0000 -11.4789 56.8583 -3.3664 0.0000 0.0000 0.0000 85.7525 3.5576 17.2933 -21.6062 32.5291 -6.3728 0.0000 0.0000 4.4556 -14.9701 6.4414 -1.7182 7.1250 -0.0000 -0.0000 8.6685 -23.3297 4.5776
8.2262 17.7086 4.7976 183.3010 5.3171 -184.8240 0.0000 0.0000 0.0000 -13.7342 -12.6027 -20.8342 2.7429 10.2668 29.8450 -0.3601 -10.6445 5.3004 0.6874 -5.3004 -14.7674 0.0000 0.0000 0.0000 22.0274 -10.1999 13.1892 -1.2581 -7.1105 20.0433 -0.7350 -0.6777 -16.4569 -0.3399 3.7465 -10.3644 2.7394 1.9342 14.2635 0.6648 3.2461 1.4101 -1.4828 1.6082 -6.3897 -12.7167 -3.3055 -17.2518 7.9277 -6.5456 34.0835 4.1368 -4.3281 15.5670 -0.0000 0.0000 0.0000 -86.7796 4.0931 12.1103 13.9619 -22.6802 -2.8134 -0.0000 -0.0000 7.3410 19.3592 25.8893 8.7220 -7.1250 0.0000 -0.0000 -11.5295 56.8292 -3.3733 -0.0000 0.0000 0.0000 85.6469 3.9668 17.2331 -21.6503 32.5796 -6.3965 0.0000 0.0000 4.8618 -14.8632 6.2689 -1.6599 7.1250 -0.0000 -0.0000 8.7551 -23.5095 4.5877
8.2163 17.7058 4.9146 183.1460 5.5315 -185.1620 0.0000 0.0000 0.0000 -13.8141 -12.9850 -20.5470 2.7834 10.3359 30.0715 -0.3792 -10.8674 4.8626 0.8194 -5.7758 -16.1352 0.0000 0.0000 0.0000 21.8189 -10.2873 13.1796 -1.2445 -7.0735 19.9333 -0.7756 -0.5918 -16.8654 -0.3539 3.8223 -10.5773 2.6322 1.8982 14.5054 0.6361 3.1986 1.5425 -1.4519 1.5943 -6.3887 -12.7964 -3.2360 -17.3184 8.1116 -6.5554 34.2987 4.2318 -4.3438 15.6987 0.0000 0.0000 0.0000 -86.9387 4.4586 11.9654 14.0440 -22.7975 -2.8451 -0.0000 -0.0000 6.8874 18.9163 26.0337 8.5536 -7.1250 0.0000 -0.0000 -12.0687 56.8799 -3.5491 0.0000 0.0000 0.0000 85.6103 4.3080 17.1545 -21.6690 32.6009 -6.4066 0.0000 0.0000 5.1703 -14.7380 6.2251 -1.6339 7.1250 -0.0000 -0.0000 8.8492 -23.5581 4.6282
8.2004 17.7037 5.0319 183.0310 5.7844 -185.4060 0.0000 0.0000 0.0000 -13.8702 -13.2895 -20.4166 2.8645 10.4724 30.5203 -0.4040 -11.1841 4.4284 0.8891 -6.0102 -16.8140 0.0000 0.0000 0.0000 21.6973 -10.1923 13.0625 -1.2369 -7.0526 19.8713 -0.7609 -0.8776 -16.8202 -0.6478 5.1485 -14.3326 2.5385 1.8316 14.6582 0.6536 3.1109 1.6535 -1.3681 1.5604 -6.3644 -12.7457 -3.1067 -17.3046 8.0597 -6.4058 34.4051 4.2293 -4.2979 15.7186 0.0000 -0.0000 0.0000 -87.1540 4.7216 11.8353 14.0450 -22.7990 -2.8455 -0.0000 -0.0000 6.3100 17.8746 26.6347 8.2267 -7.1250 0.0000 -0.0000 -13.4825 57.2552 -4.0977 0.0000 -0.0000 0.0000 85.5333 4.6828 17.0298 -21.5990 32.5209 -6.3689 0.0000 0.0000 5.4194 -14.6002 6.5603 -1.7046 7.1250 -0.0000 -0.0000 8.9344 -23.2204 4.7440
8.1816 17.7054 5.1451 183.0940 6.1274 -185.5610 0.0000 0.0000 0.0000 -13.7098 -13.5313 -20.4073 2.9897 10.6784 31.2027 -0.4298 -11.5291 4.0140 0.8291 -5.8093 -16.2320 0.0000 0.0000 0.0000 21.8170 -9.8843 12.8622 -1.2423 -7.0675 19.9155 -0.7685 -1.0329 -16.9661 -0.7231 5.4335 -15.1492 2.6549 1.8021 14.7428 0.7095 3.1028 1.7036 -1.3757 1.5575 -6.3555 -12.6533 -2.9807 -17.0928 7.9447 -6.2577 34.3805 4.1891 -4.2527 15.6235 0.0000 0.0000 0.0000 -87.3829 4.8971 11.5541 13.9108 -22.6071 -2.7937 -0.0000 -0.0000 6.3393 17.3078 26.9501 8.0386 -7.1250 0.0000 -0.0000 -14.2537 57.4444 -4.4038 0.0000 0.0000 0.0000 85.4680 4.8628 17.0059 -21.6198 32.5447 -6.3801 0.0000 0.0000 5.3951 -14.6570 6.8015 -1.7741 7.1250 -0.0000 -0.0000 8.8817 -22.9726 4.7665
8.1613 17.7112 5.2574 183.2220 6.4050 -185.6290 0.0000 0.0000 0.0000 -13.5281 -13.7012 -20.5400 3.1562 10.9438 32.0905 -0.4701 -12.0827 3.4290 0.8841 -5.9938 -16.7665 0.0000 0.0000 0.0000 22.0131 -9.6233 12.4827 -1.2639 -7.1263 20.0901 -0.7879 -1.0766 -17.1918 -0.6351 5.0988 -14.1906 2.8423 1.7532 14.8286 0.7608 3.0763 1.6825 -1.4261 1.5393 -6.4198 -12.5775 -2.8866 -16.9422 7.9356 -6.2315 34.4860 4.1766 -4.2599 15.6295 0.0000 0.0000 0.0000 -87.5218 5.1461 11.4903 13.7884 -22.4314 -2.7468 -0.0000 -0.0000 6.2466 17.2328 26.6246 7.9137 -7.1250 0.0000 -0.0000 -14.1486 57.1088 -4.2552 0.0000 0.0000 0.0000 85.4298 4.8756 17.1284 -21.7256 32.6656 -6.4371 0.0000 0.0000 5.1422 -14.8401 6.3681 -1.6833 7.1250 -0.0000 -0.0000 8.7674 -23.4088 4.6149
8.1384 17.7191 5.3743 183.2070 6.5737 -185.6290 0.0000 0.0000 0.0000 -13.5322 -13.9556 -20.7981 3.3531 11.2458 33.1133 -0.5104 -12.6584 2.8271 1.0250 -6.4404 -18.0677 0.0000 0.0000 0.0000 22.0535 -9.4444 11.9287 -1.2977 -7.2172 20.3604 -0.7598 -1.2854 -16.9802 -0.7080 5.3777 -14.9891 2.8530 1.6321 14.9016 0.7747 2.9217 1.6697 -1.3905 1.4623 -6.4804 -11.4287 -6.0684 -17.0701 6.3939 -4.7953 35.2262 4.1373 -1.7222 15.8855 0.0000 -0.0000 0.0000 -87.6449 5.3617 11.6284 13.7350 -22.3547 -2.7265 -0.0000 -0.0000 5.9083 17.2330 26.8240 7.9680 -7.1250 0.0000 -0.0000 -14.2605 57.3046 -4.3576 0.0000 -0.0000 0.0000 85.4302 5.1061 17.3448 -21.6759 32.6088 -6.4103 0.0000 0.0000 4.5738 -15.3803 6.0708 -1.6663 7.1250 -0.0000 -0.0000 8.3836 -23.6960 4.3525
8.1084 17.7302 5.4830 183.0360 6.7950 -185.5920 0.0000 0.0000 0.0000 -13.7196 -14.2873 -21.0354 3.5729 11.5693 34.2249 -0.5279 -12.9769 2.2015 1.1028 -6.6727 -18.7493 0.0000 0.0000 0.0000 21.8700 -9.2316 11.3000 -1.3445 -7.3412 20.7303 -0.7923 -1.2310 -17.3036 -0.6889 5.3062 -14.7840 2.8068 1.5479 14.8385 0.7271 2.7928 1.6557 -1.3870 1.3984 -6.4652 -11.3656 -6.0484 -16.9957 6.3421 -4.7557 35.3380 4.1184 -1.6998 15.9143 -0.0000 0.0000 0.0000 -87.7874 5.4942 11.6568 13.6028 -22.1640 -2.6764 -0.0000 -0.0000 5.9915 17.1754 27.0010 7.9879 -7.1250 0.0000 -0.0000 -14.4214 57.4658 -4.4646 -0.0000 0.0000 0.0000 85.4400 5.3951 17.4208 -21.5600 32.4761 -6.3479 0.0000 0.0000 4.0503 -16.0625 5.2465 -1.5081 7.1250 -0.0000 -0.0000 7.9160 -24.5231 3.9524
8.0752 17.7426 5.5834 182.9850 7.1373 -185.6100 0.0000 0.0000 0.0000 -13.8147 -14.4407 -21.1211 3.8093 11.9022 35.3870 -0.5307 -13.1215 1.6716 1.0823 -6.6122 -18.5716 0.0000 0.0000 0.0000 21.7338 -9.0322 10.7113 -1.4036 -7.4943 21.1882 -0.8077 -1.1018 -17.4122 -0.6955 5.3309 -14.8549 2.9297 1.5135 14.7697 0.7234 2.7623 1.6497 -1.4514 1.3800 -6.4290 -11.3953 -6.0923 -16.7653 6.2870 -4.7917 35.4042 4.0983 -1.7213 15.8976 -0.0000 -0.0000 0.0000 -88.0113 5.5846 11.3401 13.3617 -21.8149 -2.5862 -0.0000 -0.0000 6.8917 17.2574 26.4487 7.8775 -7.1250 0.0000 -0.0000 -14.0253 56.9411 -4.1600 -0.0000 -0.0000 0.0000 85.4630 5.5550 17.0123 -21.4829 32.3877 -6.3066 0.0000 0.0000 4.5186 -16.4280 3.9246 -1.1561 7.1250 -0.0000 -0.0000 7.7074 -25.8782 3.6013
8.0408 17.7590 5.6847 182.9810 7.5137 -185.6440 0.0000 0.0000 0.0000 -13.9060 -14.4679 -21.1491 4.0651 12.2465 36.6097 -0.5226 -13.1910 1.0017 1.2266 -7.0242 -19.7872 0.0000 0.0000 0.0000 21.6352 -8.8072 10.1408 -1.4630 -7.6443 21.6387 -0.8073 -0.8564 -17.3071 -0.6724 5.2435 -14.6043 3.0811 1.4820 14.7579 0.7255 2.7425 1.6223 -1.5306 1.3646 -6.4458 -11.3974 -6.1089 -16.6749 6.2839 -4.7835 35.6041 4.1134 -1.7079 15.9763 0.0000 -0.0000 0.0000 -88.1817 5.6761 11.0931 13.0824 -21.4078 -2.4833 -0.0000 -0.0000 7.7728 17.6862 25.6041 7.8461 -7.1250 0.0000 -0.0000 -13.1302 56.1964 -3.6500 0.0000 -0.0000 0.0000 85.5176 5.6035 16.5789 -21.4019 32.2944 -6.2633 0.0000 0.0000 4.9467 -16.4581 3.7243 -1.0993 7.1250 -0.0000 -0.0000 7.6954 -26.0846 3.5581
8.0068 17.7788 5.7865 182.9520 7.8681 -185.7140 0.0000 0.0000 0.0000 -14.0411 -14.4602 -21.1686 4.3404 12.6001 37.8892 -0.4982 -13.0536 0.4244 1.3120 -7.2554 -20.4742 0.0000 0.0000 0.0000 21.5769 -8.4751 9.6395 -1.5210 -7.7876 22.0708 -0.7958 -0.7876 -17.1582 -0.6666 5.2213 -14.5408 3.1591 1.4329 14.8447 0.7374 2.6942 1.5993 -1.5563 1.3371 -6.5177 -11.3968 -6.1185 -16.7324 6.2653 -4.7503 35.8449 4.1272 -1.6879 16.1081 0.0000 -0.0000 0.0000 -88.3736 5.8177 11.0445 12.9339 -21.1903 -2.4294 -0.0000 -0.0000 8.1246 17.8379 24.8566 7.7034 -7.1250 0.0000 -0.0000 -12.5999 55.4848 -3.2804 0.0000 -0.0000 0.0000 85.5842 5.6811 16.3191 -21.2397 32.1071 -6.1769 0.0000 0.0000 4.8102 -16.3043 4.0530 -1.1844 7.1250 -0.0000 -0.0000 7.7938 -25.7480 3.6663
